<svg width="1200" height="720" viewBox="0 0 1200 720" fill="none" xmlns="http://www.w3.org/2000/svg">
  <defs>
    <linearGradient id="bg" x1="0" y1="0" x2="1" y2="1">
      <stop offset="0" stop-color="#0F172A"/>
      <stop offset="1" stop-color="#1D4ED8"/>
    </linearGradient>
    <linearGradient id="card" x1="0" y1="0" x2="0" y2="1">
      <stop offset="0" stop-color="#F8FAFC" stop-opacity="0.95"/>
      <stop offset="1" stop-color="#E2E8F0" stop-opacity="0.95"/>
    </linearGradient>
    <linearGradient id="route" x1="0" y1="0" x2="1" y2="0">
      <stop offset="0" stop-color="#22D3EE"/>
      <stop offset="1" stop-color="#34D399"/>
    </linearGradient>
  </defs>

  <rect width="1200" height="720" fill="url(#bg)"/>
  <circle cx="1080" cy="120" r="220" fill="#60A5FA" fill-opacity="0.14"/>
  <circle cx="130" cy="640" r="260" fill="#22D3EE" fill-opacity="0.13"/>

  <rect x="90" y="80" width="1020" height="560" rx="28" fill="#0B1223" fill-opacity="0.55" stroke="#93C5FD" stroke-opacity="0.18"/>

  <path d="M180 490C286 388 411 444 512 335C602 237 726 254 823 310C914 362 979 323 1040 255" stroke="url(#route)" stroke-width="8" stroke-linecap="round"/>

  <circle cx="180" cy="490" r="14" fill="#34D399"/>
  <circle cx="512" cy="335" r="14" fill="#34D399"/>
  <circle cx="823" cy="310" r="14" fill="#34D399"/>
  <circle cx="1040" cy="255" r="14" fill="#34D399"/>

  <rect x="145" y="165" width="220" height="122" rx="16" fill="url(#card)"/>
  <rect x="145" y="317" width="220" height="122" rx="16" fill="url(#card)"/>
  <rect x="855" y="395" width="220" height="122" rx="16" fill="url(#card)"/>

  <rect x="186" y="210" width="138" height="12" rx="6" fill="#1E293B"/>
  <rect x="186" y="236" width="96" height="10" rx="5" fill="#334155"/>

  <rect x="186" y="363" width="128" height="12" rx="6" fill="#1E293B"/>
  <rect x="186" y="389" width="114" height="10" rx="5" fill="#334155"/>

  <rect x="896" y="438" width="130" height="12" rx="6" fill="#1E293B"/>
  <rect x="896" y="464" width="101" height="10" rx="5" fill="#334155"/>

  <g transform="translate(465 505)">
    <rect width="280" height="95" rx="16" fill="#0EA5E9" fill-opacity="0.92"/>
    <rect x="24" y="28" width="136" height="12" rx="6" fill="#E0F2FE"/>
    <rect x="24" y="50" width="92" height="10" rx="5" fill="#BAE6FD"/>
    <circle cx="228" cy="74" r="15" fill="#E0F2FE"/>
    <circle cx="250" cy="74" r="15" fill="#E0F2FE"/>
  </g>
</svg>
