{
  "asset": {
    "version": "2.0",
    "generator": "Manifold MeshAnimation substrate"
  },
  "scene": 0,
  "scenes": [
    {
      "nodes": [
        0
      ]
    }
  ],
  "nodes": [
    {
      "name": "Hips",
      "translation": [
        0.5,
        0.52,
        0.5
      ],
      "rotation": [
        0.0,
        0.0,
        0.0,
        1.0
      ],
      "children": [
        1,
        13,
        16
      ]
    },
    {
      "name": "Spine",
      "translation": [
        0.5,
        0.58,
        0.5
      ],
      "rotation": [
        0.0,
        0.0,
        0.0,
        1.0
      ],
      "children": [
        2
      ]
    },
    {
      "name": "Chest",
      "translation": [
        0.5,
        0.7,
        0.5
      ],
      "rotation": [
        0.0,
        0.0,
        0.0,
        1.0
      ],
      "children": [
        3,
        5,
        9
      ]
    },
    {
      "name": "Neck",
      "translation": [
        0.5,
        0.82,
        0.5
      ],
      "rotation": [
        0.0,
        0.0,
        0.0,
        1.0
      ],
      "children": [
        4
      ]
    },
    {
      "name": "Head",
      "translation": [
        0.5,
        0.88,
        0.5
      ],
      "rotation": [
        0.0,
        0.0,
        0.0,
        1.0
      ]
    },
    {
      "name": "Shoulder.L",
      "translation": [
        0.5,
        0.82,
        0.5
      ],
      "rotation": [
        0.0,
        0.0,
        0.0,
        1.0
      ],
      "children": [
        6
      ]
    },
    {
      "name": "UpperArm.L",
      "translation": [
        0.25,
        0.82,
        0.5
      ],
      "rotation": [
        0.0,
        0.0,
        0.0,
        1.0
      ],
      "children": [
        7
      ]
    },
    {
      "name": "ForeArm.L",
      "translation": [
        0.12,
        0.65,
        0.5
      ],
      "rotation": [
        0.0,
        0.0,
        0.0,
        1.0
      ],
      "children": [
        8
      ]
    },
    {
      "name": "Hand.L",
      "translation": [
        0.05,
        0.48,
        0.5
      ],
      "rotation": [
        0.0,
        0.0,
        0.0,
        1.0
      ]
    },
    {
      "name": "Shoulder.R",
      "translation": [
        0.5,
        0.82,
        0.5
      ],
      "rotation": [
        0.0,
        0.0,
        0.0,
        1.0
      ],
      "children": [
        10
      ]
    },
    {
      "name": "UpperArm.R",
      "translation": [
        0.75,
        0.82,
        0.5
      ],
      "rotation": [
        0.0,
        0.0,
        0.0,
        1.0
      ],
      "children": [
        11
      ]
    },
    {
      "name": "ForeArm.R",
      "translation": [
        0.88,
        0.65,
        0.5
      ],
      "rotation": [
        0.0,
        0.0,
        0.0,
        1.0
      ],
      "children": [
        12
      ]
    },
    {
      "name": "Hand.R",
      "translation": [
        0.95,
        0.48,
        0.5
      ],
      "rotation": [
        0.0,
        0.0,
        0.0,
        1.0
      ]
    },
    {
      "name": "UpperLeg.L",
      "translation": [
        0.4,
        0.52,
        0.5
      ],
      "rotation": [
        0.0,
        0.0,
        0.0,
        1.0
      ],
      "children": [
        14
      ]
    },
    {
      "name": "LowerLeg.L",
      "translation": [
        0.35,
        0.3,
        0.5
      ],
      "rotation": [
        0.0,
        0.0,
        0.0,
        1.0
      ],
      "children": [
        15
      ]
    },
    {
      "name": "Foot.L",
      "translation": [
        0.36,
        0.12,
        0.5
      ],
      "rotation": [
        0.0,
        0.0,
        0.0,
        1.0
      ]
    },
    {
      "name": "UpperLeg.R",
      "translation": [
        0.6,
        0.52,
        0.5
      ],
      "rotation": [
        0.0,
        0.0,
        0.0,
        1.0
      ],
      "children": [
        17
      ]
    },
    {
      "name": "LowerLeg.R",
      "translation": [
        0.65,
        0.3,
        0.5
      ],
      "rotation": [
        0.0,
        0.0,
        0.0,
        1.0
      ],
      "children": [
        18
      ]
    },
    {
      "name": "Foot.R",
      "translation": [
        0.64,
        0.12,
        0.5
      ],
      "rotation": [
        0.0,
        0.0,
        0.0,
        1.0
      ]
    }
  ],
  "animations": [
    {
      "name": "ManifoldAnim",
      "samplers": [
        {
          "input": 0,
          "output": 1,
          "interpolation": "LINEAR"
        },
        {
          "input": 0,
          "output": 2,
          "interpolation": "LINEAR"
        },
        {
          "input": 0,
          "output": 3,
          "interpolation": "LINEAR"
        },
        {
          "input": 0,
          "output": 4,
          "interpolation": "LINEAR"
        }
      ],
      "channels": [
        {
          "sampler": 0,
          "target": {
            "node": 0,
            "path": "rotation"
          }
        },
        {
          "sampler": 1,
          "target": {
            "node": 1,
            "path": "rotation"
          }
        },
        {
          "sampler": 2,
          "target": {
            "node": 3,
            "path": "rotation"
          }
        },
        {
          "sampler": 3,
          "target": {
            "node": 4,
            "path": "rotation"
          }
        }
      ]
    }
  ],
  "accessors": [
    {
      "bufferView": 0,
      "componentType": 5126,
      "count": 60,
      "type": "SCALAR",
      "min": [
        0.0
      ],
      "max": [
        1.966667
      ]
    },
    {
      "bufferView": 1,
      "componentType": 5126,
      "count": 60,
      "type": "VEC4",
      "min": [
        0.0
      ],
      "max": [
        1.0
      ]
    },
    {
      "bufferView": 2,
      "componentType": 5126,
      "count": 60,
      "type": "VEC4",
      "min": [
        -0.026176948307873153
      ],
      "max": [
        1.0
      ]
    },
    {
      "bufferView": 3,
      "componentType": 5126,
      "count": 60,
      "type": "VEC4",
      "min": [
        0.0
      ],
      "max": [
        1.0
      ]
    },
    {
      "bufferView": 4,
      "componentType": 5126,
      "count": 60,
      "type": "VEC4",
      "min": [
        0.0
      ],
      "max": [
        1.0
      ]
    }
  ],
  "bufferViews": [
    {
      "buffer": 0,
      "byteOffset": 0,
      "byteLength": 240,
      "target": 34962
    },
    {
      "buffer": 0,
      "byteOffset": 240,
      "byteLength": 960,
      "target": 34962
    },
    {
      "buffer": 0,
      "byteOffset": 1200,
      "byteLength": 960,
      "target": 34962
    },
    {
      "buffer": 0,
      "byteOffset": 2160,
      "byteLength": 960,
      "target": 34962
    },
    {
      "buffer": 0,
      "byteOffset": 3120,
      "byteLength": 960,
      "target": 34962
    }
  ],
  "buffers": [
    {
      "uri": "animated.bin",
      "byteLength": 4080
    }
  ]
}